<?xml version="1.0" encoding="UTF-8" standalone="no"?>
<!-- Created with Inkscape (http://www.inkscape.org/) -->

<svg
   width="512"
   height="512"
   viewBox="0 0 512 512"
   version="1.1"
   id="svg1"
   xml:space="preserve"
   inkscape:export-filename="save_button.png"
   inkscape:export-xdpi="96"
   inkscape:export-ydpi="96"
   inkscape:version="1.4 (86a8ad7, 2024-10-11)"
   sodipodi:docname="save_button.svg"
   xmlns:inkscape="http://www.inkscape.org/namespaces/inkscape"
   xmlns:sodipodi="http://sodipodi.sourceforge.net/DTD/sodipodi-0.dtd"
   xmlns="http://www.w3.org/2000/svg"
   xmlns:svg="http://www.w3.org/2000/svg"><sodipodi:namedview
     id="namedview1"
     pagecolor="#505050"
     bordercolor="#eeeeee"
     borderopacity="1"
     inkscape:showpageshadow="0"
     inkscape:pageopacity="0"
     inkscape:pagecheckerboard="0"
     inkscape:deskcolor="#505050"
     inkscape:document-units="px"
     inkscape:zoom="2.2511407"
     inkscape:cx="318.06097"
     inkscape:cy="217.00109"
     inkscape:window-width="1920"
     inkscape:window-height="1017"
     inkscape:window-x="1432"
     inkscape:window-y="-8"
     inkscape:window-maximized="1"
     inkscape:current-layer="layer1" /><defs
     id="defs1"><filter
       inkscape:collect="always"
       style="color-interpolation-filters:sRGB"
       id="filter2"
       x="-0.10397968"
       y="-0.10397967"
       width="1.2079594"
       height="1.2079593"><feGaussianBlur
         inkscape:collect="always"
         stdDeviation="7.8744696"
         id="feGaussianBlur2" /></filter><filter
       inkscape:collect="always"
       style="color-interpolation-filters:sRGB"
       id="filter3"
       x="-0.10251001"
       y="-0.10251001"
       width="1.20502"
       height="1.20502"><feGaussianBlur
         inkscape:collect="always"
         stdDeviation="18.102305"
         id="feGaussianBlur3" /></filter></defs><g
     inkscape:label="Layer 1"
     inkscape:groupmode="layer"
     id="layer1"><circle
       style="opacity:1;fill:#ffffff;stroke:none;stroke-width:10;stroke-linecap:round;stroke-linejoin:round;paint-order:fill markers stroke;filter:url(#filter3);fill-opacity:1"
       id="circle2"
       cx="256"
       cy="256"
       r="211.90872" /><circle
       style="opacity:1;fill:#000000;stroke:#ffffff;stroke-width:10;stroke-linecap:round;stroke-linejoin:round;paint-order:fill markers stroke"
       id="path1"
       cx="256"
       cy="256"
       r="211.90872" /><g
       id="g3"
       transform="translate(0,1.406252e-5)"><path
         id="path1-8"
         d="m 172.69621,165.12296 c -4.18034,0 -7.57324,3.3929 -7.57324,7.57324 v 166.60759 c 0,4.18034 3.3929,7.57323 7.57324,7.57323 h 166.60758 c 4.18034,0 7.57323,-3.39289 7.57323,-7.57323 V 202.98824 l -37.86527,-37.86528 z m 45.4385,15.14603 h 75.73057 c 4.18034,0 7.57324,3.39289 7.57324,7.57324 v 45.43851 c 0,4.18034 -3.3929,7.57324 -7.57324,7.57324 h -75.73056 c -4.18035,0 -7.57324,-3.3929 -7.57324,-7.57324 v -45.43851 c 0,-4.18035 3.39289,-7.57324 7.57323,-7.57324 z m 37.86528,7.57323 v 45.43851 h 30.2925 v -45.43851 z m -53.01174,83.30379 h 106.02349 c 4.18034,0 7.57279,3.3929 7.57279,7.57324 V 331.731 H 195.41547 v -53.01175 c 0,-4.18034 3.39244,-7.57324 7.57278,-7.57324 z"
         style="mix-blend-mode:normal;fill:#ffffff;fill-opacity:1;stroke-width:33.3333;filter:url(#filter2)" /><path
         id="path2"
         d="m 172.69621,165.12297 c -4.18034,0 -7.57324,3.3929 -7.57324,7.57324 V 339.3038 c 0,4.18034 3.3929,7.57323 7.57324,7.57323 H 339.3038 c 4.18034,0 7.57323,-3.39289 7.57323,-7.57323 V 202.98825 l -37.86527,-37.86528 z m 45.43851,15.14603 h 75.73057 c 4.18034,0 7.57324,3.39289 7.57324,7.57324 v 45.43851 c 0,4.18034 -3.3929,7.57324 -7.57324,7.57324 h -75.73056 c -4.18035,0 -7.57324,-3.3929 -7.57324,-7.57324 v -45.43851 c 0,-4.18035 3.39289,-7.57324 7.57323,-7.57324 z M 256,187.84223 v 45.43851 h 30.2925 v -45.43851 z m -53.01174,83.30379 h 106.02349 c 4.18034,0 7.57279,3.3929 7.57279,7.57324 v 53.01175 H 195.41548 v -53.01175 c 0,-4.18034 3.39244,-7.57324 7.57278,-7.57324 z"
         style="fill:#ffffff;fill-opacity:1;stroke-width:33.3333" /></g></g></svg>
